<svg xmlns="http://www.w3.org/2000/svg" viewBox="0 0 1400.51 1203.99"><defs><style>.cls-1{fill:#fff;}.cls-2{fill:#e20613;}</style></defs><g id="katman_2" data-name="katman 2"><g id="katman_1-2" data-name="katman 1"><path class="cls-1" d="M1023,648.19c1.06-.76,3.44-1.8,3.44-7.42,0-2.95,6.93-12.32,7.41-2.95S1028,659,1028,659c-8.89,7.38-27.14,31.06-32.06,44.38s-3,33,20.21,33.53,45.86-10.84,69-24.16,35-11.84,39.42-11.84,7.43,8.39-1,8.89-17.27,5.91-17.27,5.91c26.62,10.83,66.56-10.48,66.56-10.48,28.11-11.32,60.68,7,69,13.42s30.54,24.66,47.81,31.07,27.62,3.44,30.08,1,4.46-11.33-1-17.74-19.73-18.74-28.12-23.17-18.27-23.18-18.27-23.18c-6.88,1-5.88-3-5.88-3,17.25-16.76,34-14.8,45.84-14.31s42.91,8.38,52.77,7.41,26.62-4.44,28.1-14.3-9.37-16.76-20.72-24.16-70-17.75-81.37-20.7a215.29,215.29,0,0,1-24.16-8.39c-6.38,16.76,6,25.13,6,25.13-9.87,1.5-25.64-12.3-7.41-45.84s56.69-60.64,64.09-66.07,19.25-14.3,16.77-25.15-18.74-10.84-43.4-2.46-72,36-91.19,47.34-40.46,17.35-40.46,17.35c-12.81,3.94-30.08,4.35-30.08,4.35,1.51-2.47,8.89-4,14.31-5.93s13.81-4.45,13.81-4.45l-1-2.45c-11.32-1.49-30,1.47-36.45,4s-15.29,3.44-15.29,3.44c-5.92.5-6.15-4.19-6.15-4.19-.75-3,8.84-5.91,8.84-5.91l-.58-8.77h0l-129.5,81.87C1012.4,645.38,1020.58,650,1023,648.19Z"/><path class="cls-1" d="M802.13,909.49c13.83,1,0,6.92,0,6.92C724.24,923.31,638.45,879,638.45,879c-7.4,19.71-29.11,45.34-35,51.27S585.2,943,575.32,949.44c-9.51,6.2-20.29,18.32-21.05,19.19.26-.3,1.74-2,3.94-4.24-2.17,2.26-3.63,3.9-4,4.25,26.67,19.05,63.78,40,109.71,52.3,83.93,22.43,168.9,15.4,238.59-11.35a340.82,340.82,0,0,0,63.13-32.4q3-2,6-4.09a449,449,0,0,0,53.89-44.43A375.55,375.55,0,0,0,1098,831c19.72-39.35,28.39-75.77,32.94-103.9h0s4.37-1,10.17-2.31l1.48-.34,3.09-.72,3.21-.76,1.62-.39,1.62-.39c-10.24,2.49-21.19,4.91-21.19,4.91-22.21,3.45-41.33-4.93-41.33-4.93-5.93,3.45-42.88,19.74-47.33,21.21s-24.15,11.83-45.36,3-15.77-38-8.39-52.76,23.17-27.14,25.16-31.07-1-7.88-1-7.88A107,107,0,0,1,987.45,637a103.72,103.72,0,0,1-8.49-9L621.6,853.92C727.13,913.09,788.32,908.53,802.13,909.49ZM558.79,963.78l.39-.39Z"/><path class="cls-1" d="M824.32,364.66C812.5,444.52,762.2,470.18,762.2,470.18c6.89-4.95,42.66-50.88,48.31-97.64,5.45-44.87-18.73-82.35-24.65-91.71-7.89-12.51-18.53-36.49-18.53-36.49-14.79-33.52-5.66-44.31-6.12-79.88-.35-26.9-15.55-50.82-24.39-62.48a1.78,1.78,0,0,1,2.56-2.45c7.83,6.56,16.41,17.1,16.41,17.1,0-4.92,2.47-14.31,16.77-17.75,10-2.41,28.69-5.52,41.5-9.46s23.08-10.75,26-22.59S832.22,54,827.28,57c-4.6,2.76-12.67,4.67-13.69,4.91l-.22,0c-8.26,1-4.83,4-4.83,4l3.28,3.88a2.52,2.52,0,0,1-2.19,4.13c-17.58-2.32-35.79-20.36-44.47-42.54-8.87-22.66-29.58-21.7-29.58-21.7-36.49-1-81.82,31.73-86.78,34.61-9.38,5.43-3,7.79-3,7.79A100.77,100.77,0,0,1,670.48,57c-48.31,2-88.74,13.8-115.38,33.53s-47.33,82.84-47.33,82.84c-5.93,13.8-19,40.24-19,40.24-6.89,10.84-18.43,25.85-32.24,40.61s-51.28,62.14-51.28,106.51,49.3,100.6,54.25,107.51S465.37,484,465.37,484a335.06,335.06,0,0,0-29.29-29.19,135.64,135.64,0,0,0-38.75,28c-13.55,14.11-25.65,35.7-36.5,50.47s-41.43,40.05-41.43,40.05c-10.84,9.86-32.52,29-40.43,37.87s-23.65,21.71-23.65,21.71L275,640.77c-7.87,9.85-58.17-8.88-94.66-29.58S100.5,567.8,100.5,567.8C62,551,32.93,549.55,18.63,554c-10.73,3.34-10.84,15.79,0,19.74s41.43,14.79,52.26,24.66S89.64,624,92.6,629.91s-2,4-2,4c-9.86-12.81-16.76-17.74-16.76-17.74-21.71,13.78-56.2,43.37-56.2,43.37-14.81,22.71,11.82,16.77,11.82,16.77,58.18-11.83,84.8,22.69,84.8,22.69s2,8.87-3,3.94-22.67-12.82-22.67-12.82c-2,17.75-17.77,23.68-28.6,42.42s10.83,19.71,17.75,15.77,18.73-7.9,27.61-10.85,1-8.87,1-8.87c10.85-4.95,59.16,28.59,78.89,35.49s9.87-7.89,9.87-7.89c22.67,3,68,58.18,79.86,65.11s21.7,3,21.7,3c7.89-13.85-2-31.58-2-31.58-12.24-22.81-4.51-34.1,1.91-39.06a2.09,2.09,0,0,1,3.24,2.39c-1,2.62-1.84,5.49-2.52,8a4.16,4.16,0,0,0,5.24,5c27.65-8.21,51.44-21.73,65.1-33.59a376.56,376.56,0,0,1,32.55-24.66c47.34-27.11,79.87-23.65,83.82-23.65s1.48,5.42,1.48,5.42l-12,1.29.72,1.7,13.54,32.13c.58,1.22,1.07,2.22,1.41,2.91L998.37,408.67c-1-.63-2-1.23-3-1.85,1,.63,2,1.21,3,1.85h0C899.13,345.57,824.32,364.66,824.32,364.66Zm-221.88-74s17.25,11.82,28.11-4.45c0,0,5.92-4.43,5.92,2.47s-5,17.76-15.78,19.72S600,298.08,598,295.14,600,289.21,602.44,290.69Zm6.42,129.18c-9.87,1-22.69-12.82-23.18-30.06s6.4-32.56,20.22-32.56c12.82,0,21.69,17.26,22.18,33S618.72,418.89,608.86,419.87ZM560,143.74c0-5.41,10.94-20.84,21.7-24.15,6.4-2,7.89-.49,6.4,2-14.79,13.81-18.35,25.14-18.35,25.14C566.35,152.65,560,149.18,560,143.74Zm6.42,43.91c-1.5-19.24,13.79-21.82,13.79-21.82,13.31-2.46,16.76,13.43,16.76,13.43s1.35,3.22-.49,4.43c-3,2-4.44-10.85-8.38-9.37s.49,13.33.49,13.33c3,12.32,0,20.69-7.39,22.18S567.92,206.87,566.46,187.65ZM637,462.27c-2,7.91-9.86,19.72-24.16,20.72s-27.59-13.81-28.6-16.76,2.47-4,4.95-1.49c3.47,3.5,20.7,12.82,42.39-4.92C631.53,459.82,638.93,454.39,637,462.27ZM683.3,196.51c-3.44,0-3.44-11.34-5.43-11.34s-4.42-2.47-4.42,16.26-11.35,18.15-11.35,18.15c-5.42-.49-11.33-1.87-9.86-24.55S670,172.45,670,172.45c12.33,0,14.9,17.65,14.9,17.65C685.38,192.56,685.27,196.51,683.3,196.51Zm13.32-48.32c-.87.86-2.3.78-3.63.41a9.85,9.85,0,0,1-4.57-2.83c-8.18-8.82-21.19-17.34-24.85-19.66a2.62,2.62,0,0,1,.07-4.47l6-3.5a2.6,2.6,0,0,1,1.91-.3l2.85.64a2.72,2.72,0,0,1,1,.47c8.2,6.25,18.1,19.64,20.31,22.7a10,10,0,0,1,1.19,2.14C697.39,145.11,697.8,147,696.62,148.19Z"/><path d="M1384.36,635.49c-1.64-1-3-1.65-8.75-3.75-13.27-4.85-22.72-8.3-36.75-11.63a267.24,267.24,0,0,0-28.94-5.2l0,.29,0,.28-1.79-.35-.57-.12c-3.95-.79-8-1.68-12.15-2.7h0a216.38,216.38,0,0,1-26.93-8c2.26-5.18,4.32-13.75,13-26,1.65-2.33,3.54-4.8,5.72-7.4,1.09-1.3,2.25-2.64,3.49-4,.62-.69,1.26-1.38,1.91-2.08,1.32-1.41,2.72-2.84,4.2-4.32s3.06-3,4.72-4.51a1.66,1.66,0,0,1,0,.16c0,.08.05.19.08.32a.74.74,0,0,0,0,.14h0l1.84-1.48c3.5-2.8,9.73-7.8,16.48-13.29l4.39-3.58,1.47-1.21c1.47-1.2,2.93-2.41,4.37-3.6l2.83-2.35c2.78-2.32,5.4-4.52,7.67-6.47,8.63-7.39,12.83-16.49,13.32-24,0-.37,0-.74.05-1.11s0-.72,0-1.08,0-.7-.07-1a13.51,13.51,0,0,0-3-7.73,43.4,43.4,0,0,0-6-5.88,28.69,28.69,0,0,0-5.54-3.47,21.1,21.1,0,0,0-9.56-2.09,17.29,17.29,0,0,0-1.74.11,65.18,65.18,0,0,0-7,1.09c-.62.13-1.26.27-1.91.43s-1.34.33-2,.52l-1.07.3c-.72.2-1.46.43-2.23.67-1.55.48-3.2,1-5,1.67s-3.7,1.37-5.79,2.19l-3.25,1.32c-3.94,1.63-8.43,3.58-13.59,5.93l.2.57c0,.1.07.21.11.31h0s-7.72,3.73-19.23,9.49l-1.5.74-5.51,2.78-1.65.83-6,3.06-1.82.93-1.76.9-3.73,1.92-3.67,1.9q-4.77,2.48-9.67,5.06l-1.82,1q-3.43,1.82-6.86,3.66c-4.53,2.44-9,4.9-13.42,7.34l-1.85,1,0,0-1.73,1-.19.11-1.57.88-.3.18L1203,537l-.34.19-1.43.82-.34.2-1.37.8c-.13.07-.26.14-.38.22l-1.31.76-.41.24-1.29.76-.39.23-1.64,1c-2.92.11-6.51.21-10.36.31l-6.74.17-3.4.08-9.57.2-1.42,0-9.43.18-18.25,2h0s-3.49-4.92-8.37-10.85h0l-.32.2-7.53,4.77h0l0,.41h0l.13-.08h0l.58,8.77s-9.59,2.95-8.84,5.91c0,0,.23,4.69,6.15,4.19,0,0,8.86-1,15.29-3.44s25.13-5.44,36.45-4l1,2.45s-8.38,2.48-13.81,4.45-12.8,3.46-14.31,5.93c0,0,17.27-.41,30.08-4.35,0,0,21.22-6,40.46-17.35s66.55-38.95,91.19-47.34,40.94-8.38,43.4,2.46-9.36,19.71-16.77,25.15-45.84,32.55-64.09,66.07-2.46,47.34,7.41,45.84c0,0-12.33-8.37-6-25.13a215.29,215.29,0,0,0,24.16,8.39c11.36,2.95,70,13.3,81.37,20.7s22.2,14.31,20.72,24.16-18.25,13.32-28.1,14.3-40.92-6.9-52.77-7.41-28.59-2.45-45.84,14.31c0,0-1,4,5.88,3,0,0,9.89,18.74,18.27,23.18s22.7,16.74,28.12,23.17,3.42,15.28,1,17.74-12.81,5.42-30.08-1-39.42-24.65-47.81-31.07-40.94-24.74-69-13.42c0,0-39.94,21.31-66.56,10.48,0,0,8.89-5.43,17.27-5.91s5.42-8.89,1-8.89-16.27-1.49-39.42,11.84-45.88,24.65-69,24.16S991,716.7,995.93,703.4s23.17-37,32.06-44.38c0,0,6.4-11.85,5.9-21.2s-7.41,0-7.41,2.95c0,5.62-2.38,6.66-3.44,7.42-2.46,1.77-10.64-2.81-33.71-26.75l-.22-.23-10.36,6.55.21.23a103.72,103.72,0,0,0,8.49,9,107,107,0,0,0,25.22,17.61s3,3.93,1,7.88-17.75,16.27-25.16,31.07-12.82,43.88,8.39,52.76,40.92-1.49,45.36-3,41.4-17.76,47.33-21.21c0,0,19.12,8.38,41.33,4.93,0,0,11-2.42,21.19-4.91l1.61-.4,4.65-1.16,1.46-.38,1.4-.37,1.32-.35,1.24-.35c2-.56,3.6-1,4.6-1.44,2.81-1.08,6.94-2.44,11.39-3.67,1.28-.35,2.58-.69,3.88-1s2.61-.63,3.9-.9,2.56-.51,3.78-.71a51,51,0,0,1,5.16-.62c1-.06,2.1-.09,3.16-.09.52,0,1,0,1.57,0,1,0,2.1.08,3.12.15s2,.18,3,.3,1.95.26,2.87.42a42.72,42.72,0,0,1,5,1.14l1.07.33,1,.35c.31.12.6.25.88.37,1.52.67,4.68,2.34,8.45,4.48l2.11,1.21,2.19,1.28c1.48.88,3,1.8,4.49,2.72,2.62,1.62,5.19,3.28,7.43,4.84,1.28.89,2.46,1.75,3.49,2.55.51.4,1,.79,1.42,1.16,1.72,1.48,3,2.53,4,3.44l1.19,1,2,1.67,1.43,1.16.54.44,1.18,1q.33.26.66.54l1.47,1.2,1.7,1.38,2,1.61,3.51,2.88,1.27,1,.49.36.81.58.6.41.73.49.66.42.69.43.7.41.68.4.72.4.67.36.74.38.66.33.77.37.63.3.79.36.6.26.83.36.54.22.88.36.45.17,1,.37.24.08c2.16.79,4.26,1.45,6.23,2l.05,0,1.15.31.07,0,1.13.28h0a80.39,80.39,0,0,0,9.89,1.83h0l.34,0,0,.1c0,.07,0,.17-.06.3a77.3,77.3,0,0,0,12-.33,36.92,36.92,0,0,0,4.6-.82c.29-.07.58-.14.85-.22.56-.16,1.1-.33,1.62-.52s1-.4,1.49-.62a9.94,9.94,0,0,0,3.88-3,6.8,6.8,0,0,0,.9-1.76c3.89-11.67,5.38-18.1-18.32-40.53,0,0,0,.07,0,.1h0l-.36-.28h0c-.71-.55-2.45-1.89-4.75-3.8l-.09-.08-.78-.65-.09-.08-.27-.23-.55-.46-.53-.46-.42-.36-.64-.56-.36-.31-.36-.32-.35-.31-.31-.28-.78-.71-.24-.22-.87-.79-.16-.15-1-.91h0c-.7-.66-1.4-1.33-2.11-2-1.46-1.44-2.92-2.95-4.33-4.5l-.09-.11-.88-1-.21-.25c-.27-.3-.53-.61-.79-.91l-.27-.32-.72-.88c-.1-.12-.2-.25-.31-.37l-.66-.84-.33-.43-.37-.48-.24-.32-.33-.47-.56-.78c-.12-.16-.23-.33-.34-.5s-.34-.49-.5-.74l-.35-.55-.44-.7-.38-.64-.35-.61q-.33-.6-.63-1.2l0,0a2.88,2.88,0,0,1-.14-1.18,3.69,3.69,0,0,1,.42-1.41,4.42,4.42,0,0,1,.53-.8c1.14-1.35,3.53-2.8,8.44-3.64a59.92,59.92,0,0,1,9.42-.75c3.1,0,6.71.08,10.9.39,0,0,0,.1,0,.28,1.07.09,2.33.22,3.78.38l.25,0,2.12.25c4.28.54,9.83,1.38,16.63,2.7l3.37.63c2.84.5,5.74,1,8.65,1.37,1.74.25,3.49.47,5.22.67s3.44.38,5.12.53a132.38,132.38,0,0,0,13.91.62c.91,0,1.78-.05,2.62-.09a26.72,26.72,0,0,0,7.93-1.37h0a43.86,43.86,0,0,0,11.15-6.4c3.92-3.17,7.57-7.58,8.57-13.4h0C1402.27,651.73,1392.43,640.5,1384.36,635.49Z"/><path d="M554.27,968.63c.76-.87,11.54-13,21.05-19.19,9.88-6.42,22.19-13.3,28.11-19.22s27.62-31.56,35-51.27c0,0,85.79,44.36,163.68,37.46,0,0,13.83-5.93,0-6.92s-75,3.6-180.53-55.57l.06,0-.16-.08-13.45,8.51,2.23-1.41L606,863.61l-99.8,63.14.1.11.07.08.09.11.1.11c.05.06.12.13.17.2l.12.13.18.19.2.22a1.8,1.8,0,0,0,.19.21l.25.28.24.26.29.31.29.31.32.35.32.34.37.38.37.39.39.42.42.43.43.44.45.47.48.48.49.5.51.51q.26.27.54.54t.54.54l.57.57c.19.19.39.37.58.57l.63.61.6.58.67.65.65.62.71.67.67.64.76.7.7.66.81.75.72.66.86.78.76.69.88.79.82.73.91.82.84.73,1,.85.86.74,1,.88.9.76,1,.89,1,.79,1.07.9,1,.82,1.1.91,1,.82,1.16.94,1,.81,1.21,1,1.11.87,1.2.94,1.22.94,1.16.89C548.11,964.17,551.13,966.39,554.27,968.63Z"/><path d="M241,801.29c.53.62,1.06,1.24,1.56,1.85l.07.15a116.2,116.2,0,0,0,16.57,16.35,3.57,3.57,0,0,1,.6.39,6.17,6.17,0,0,1,.82.73h0c9.69,7.54,15.59,12.25,24.65,12.8a30.23,30.23,0,0,0,4.92-.12A35.54,35.54,0,0,0,300,831a25.9,25.9,0,0,0,2.85-1.37,18.45,18.45,0,0,0,2.44-1.62,11.55,11.55,0,0,0,2.66-2.83c.3-.46.56-.9.81-1.34h0a23.54,23.54,0,0,0,1.7-3.74h0c.06-.18.12-.36.17-.54h0c.11-.36.2-.73.28-1.1h0l.06-.31h0c.05-.28.1-.57.14-.86h0l.06-.42h0c0-.28.06-.56.09-.86h0l0-.41h0c0-.37,0-.76.05-1.16h0v-.17h0c0-.46,0-.94,0-1.44h0c0-.15,0-.31,0-.46h0c0-.37,0-.75-.06-1.14h0l0-.58h0c0-.39-.06-.8-.09-1.22h0c0-.19,0-.37-.05-.56h0c-.05-.61-.11-1.24-.18-1.91h0c0-.34-.08-.7-.14-1.06l-.06-.33c0-.26-.1-.52-.15-.78s0-.25-.08-.37l-.21-.88c0-.09,0-.17-.07-.26-.1-.38-.21-.77-.33-1.16,0-.09,0-.19-.08-.28-.1-.3-.19-.61-.29-.92l-.14-.39q-.13-.43-.3-.87c0-.11-.08-.23-.13-.35q-.21-.6-.45-1.2v0q-.22-.6-.48-1.2l-.15-.36c-.12-.29-.24-.58-.37-.86l-.16-.39-.42-.93c0-.09-.07-.17-.11-.25l-.54-1.16-.13-.28-.41-.86-.19-.37c-.12-.26-.25-.52-.38-.78l-.16-.32c-.18-.35-.35-.7-.53-1a.31.31,0,0,0-.05-.1c-.16-.31-.31-.61-.47-.9-.05-.11-.11-.21-.16-.31l-.35-.65c-1.62-3-2.86-5-2.86-5h0l50.3-21.22,49.78-37.48s4.45,33,13.83,54.23l74.59-47.15-1.27-3-7.73-18.33-5.81-13.79-.72-1.7,12-1.29s2.48-5.42-1.48-5.42-36.48-3.46-83.82,23.65a376.56,376.56,0,0,0-32.55,24.66c-13.66,11.86-37.45,25.38-65.1,33.59a4.16,4.16,0,0,1-5.24-5c.68-2.53,1.53-5.4,2.52-8a2.09,2.09,0,0,0-3.24-2.39c-6.42,5-14.15,16.25-1.91,39.06,0,0,9.86,17.73,2,31.58,0,0-9.85,3.92-21.7-3s-57.19-62.14-79.86-65.11c0,0,9.84,14.8-9.87,7.89s-68-40.44-78.89-35.49c0,0,7.87,5.91-1,8.87s-20.7,6.9-27.61,10.85-28.6,3-17.75-15.77,26.62-24.67,28.6-42.42c0,0,17.75,7.89,22.67,12.82s3-3.94,3-3.94-26.62-34.52-84.8-22.69c0,0-26.63,5.94-11.82-16.77,0,0,34.49-29.59,56.2-43.37,0,0,6.9,4.93,16.76,17.74,0,0,4.93,2,2-4s-10.84-21.68-21.71-31.53-41.41-20.72-52.26-24.66-10.73-16.4,0-19.74C32.93,549.55,62,551,100.5,567.8c0,0,43.38,22.69,79.87,43.39s86.79,39.43,94.66,29.58l-19.71-7.87S271.09,620,279,611.19s29.59-28,40.43-37.87c0,0,30.58-25.25,41.43-40.05s22.95-36.36,36.5-50.47a135.64,135.64,0,0,1,38.75-28A335.06,335.06,0,0,1,465.37,484s-1-8.88-5.91-15.76-54.25-63.13-54.25-107.51S442.7,269,456.49,254.19s25.35-29.77,32.24-40.61c0,0,13.11-26.44,19-40.24,0,0,20.71-63.11,47.33-82.84S622.17,59,670.48,57A100.77,100.77,0,0,0,645.82,52s-6.4-2.36,3-7.79c5-2.88,50.29-35.57,86.78-34.61,0,0,20.71-1,29.58,21.7,8.68,22.18,26.89,40.22,44.47,42.54a2.52,2.52,0,0,0,2.19-4.13l-3.28-3.88s-3.43-3,4.83-4l.22,0c1-.24,9.09-2.15,13.69-4.91,4.94-3,15.78-2,12.82,9.86s-13.22,18.64-26,22.59-31.5,7-41.5,9.46c-14.3,3.44-16.77,12.83-16.77,17.75,0,0-8.58-10.54-16.41-17.1a1.78,1.78,0,0,0-2.56,2.45c8.84,11.66,24,35.58,24.39,62.48.46,35.57-8.67,46.36,6.12,79.88,0,0,10.64,24,18.53,36.49,5.92,9.36,30.1,46.84,24.65,91.71-5.65,46.76-41.42,92.69-48.31,97.64,0,0,50.3-25.66,62.12-105.52,0,0,74.81-19.09,174.06,44l.37-.24,1.3-.82,5.18-3.28,1.72-1.09,19-12s-37.46-42.4-99.61-71-85.78-31.07-127.19-35c0,0-23.69-35-28.61-74.45-1.52-12,6.44-41.61,2-54.75-.22-.64-.43-1.28-.63-1.91l-.18-.57-.42-1.34c-.06-.22-.12-.44-.19-.65-.12-.43-.25-.85-.37-1.27l-.18-.65c-.12-.43-.23-.86-.35-1.29l-.15-.58c-.13-.49-.25-1-.37-1.45,0-.13-.07-.27-.1-.4-.31-1.26-.59-2.5-.85-3.72l-.06-.27c-.11-.52-.22-1-.32-1.54,0-.13,0-.26-.08-.39-.09-.47-.18-.94-.26-1.4,0-.14-.06-.27-.08-.41-.09-.47-.17-.93-.25-1.4l-.06-.32c-.09-.53-.17-1-.25-1.57l0-.12c-.19-1.15-.35-2.27-.5-3.36v-.05c-.07-.51-.14-1-.2-1.51l0-.24-.15-1.28,0-.27c0-.42-.09-.83-.13-1.23,0-.07,0-.15,0-.23-.05-.43-.09-.85-.12-1.27,0,0,0-.08,0-.11-.08-.92-.15-1.8-.21-2.63a1.15,1.15,0,0,1,0-.19c0-.33-.05-.65-.07-1,0-.11,0-.22,0-.34s0-.5,0-.74,0-.27,0-.4l0-.59c0-.15,0-.3,0-.44s0-.29,0-.44,0-.34,0-.51v-.08c-.1-2.7-.06-4.26-.06-4.26l19.33-7.4c11.34-2.46,44.86-7.9,53.23-21.21s13.34-29.57,5.93-34-15.76-5.93-17.24-5.44S806.58,58.45,795.72,57c0,0-13.79-8.88-19.72-22.17-1.3-2.92-2.57-6.11-4-9.32a65,65,0,0,0-8-14.4,30.94,30.94,0,0,0-4-4.23,23.8,23.8,0,0,0-14.09-5.79S725.22-2.2,707.46,2.73,645.82,30.83,633,44.65c0,0-1.49,5.91-1,7.88,0,0-26.62.49-44.85,8.89S548.7,73.74,526,109.74,504.32,162,500.38,170.37c-1.23,2.62-2.88,5.62-4.56,8.52l-1,1.72-1,1.67-1,1.59c-.31.52-.62,1-.92,1.5-1.2,1.92-2.23,3.51-2.88,4.53l-.79,1.19-.12.13-3.74,4h0c-1.14,2.77-2.66,6.3-4.2,9.41a50.07,50.07,0,0,1-2.45,4.51c-1.38,2.22-7.59,9.59-14.82,18l-1.82,2.1-.93,1.07c-4,4.62-8.19,9.38-11.92,13.6-.28.33-.57.65-.85,1-6.46,7.32-11.37,12.83-11.37,12.83s-4,5.49-9.31,13l-1.23,1.77c-1.26,1.8-2.58,3.7-3.91,5.64-4,5.84-8.2,12.13-11.66,17.73-.77,1.24-1.51,2.45-2.19,3.61-1.38,2.33-2.57,4.46-3.49,6.31-.46.93-.91,1.87-1.35,2.83-.88,1.93-1.72,3.93-2.5,6a126,126,0,0,0-4.1,12.73,113.49,113.49,0,0,0-4,28c0,5.48.13,10.48.53,15.27,0,.13,0,.27,0,.41.13,1.54.3,3.05.49,4.54s.46,3.13.75,4.68A82.82,82.82,0,0,0,398,394.24c.3.8.64,1.65,1,2.56.94,2.26,2.09,4.82,3.41,7.57.53,1.1,1.08,2.22,1.65,3.37,5.75,11.49,13.68,25.11,19.87,33.19.93,1.21,1.82,2.3,2.66,3.24-9.25,6.48-15.19,10.47-20,14-1,.71-1.87,1.4-2.75,2.08s-1.73,1.37-2.57,2.06L400,463.36l-1.24,1.08c-1.67,1.49-3.66,3.34-5.82,5.46l-1.64,1.64c-.82.83-1.67,1.7-2.52,2.6-1.44,1.5-2.9,3.06-4.34,4.68a114.88,114.88,0,0,0-10.84,13.89c-.79,1.23-1.71,2.64-2.74,4.19s-2.16,3.25-3.37,5c-2.43,3.59-5.18,7.57-8.06,11.61l-2.18,3c-5.12,7.09-10.48,14.12-15,19.3q-.48.55-1.14,1.26t-1.5,1.56c-1.39,1.42-3.11,3.13-5.11,5.08L332,546.23l-2.78,2.66c-3.85,3.67-8.3,7.85-13.09,12.34l-1.82,1.7c-25.62,23.94-60.06,55.56-68.32,65.27a39.25,39.25,0,0,1-11.79-2.2l-.93-.31c-.91-.31-1.78-.63-2.62-1l-1.6-.65c-1.19-.5-2.25-1-3.14-1.4l-.71-.34-.48-.23c-1-.52-1.65-.85-1.65-.85a.13.13,0,0,0,0-.06c0-.43.07-.84.11-1.27-5.16-2.26-17.86-8-35.81-16.73L180.78,600l-7-3.48-3.63-1.83-7.55-3.85-3.91-2c-9.22-4.78-19.15-10-29.64-15.79-4.94-2.7-9.66-5.22-14.21-7.57-1.51-.79-3-1.55-4.48-2.29-4.43-2.24-8.67-4.29-12.77-6.18-6.82-3.14-13.21-5.79-19.28-8-2.43-.87-4.8-1.67-7.14-2.38a116.72,116.72,0,0,0-19.94-4.44c-2.12-.27-4.21-.46-6.29-.58-1-.06-2.07-.1-3.1-.12s-2.06,0-3.08,0-2,0-3.07.1a82.89,82.89,0,0,0-9.13,1c-1,.16-2,.34-3,.53-3.05.6-6.11,1.35-9.2,2.27a21.06,21.06,0,0,0-2.75,1c-.61.28-1.19.6-1.76.93A19.58,19.58,0,0,0,.12,561.89,16.13,16.13,0,0,0,5.78,576.3a30,30,0,0,0,6.45,4.32c3.14,1.6,6,2.94,8.64,4.1l1.94.83c1.27.54,2.49,1,3.67,1.49l1.74.67c1.14.43,2.24.83,3.32,1.22,3.23,1.16,6.2,2.17,9.16,3.27,1,.37,2,.75,3,1.16.5.2,1,.4,1.49.62a84.07,84.07,0,0,1,11.28,5.84q.89.54,1.8,1.14c3.07,2,6.42,4.34,10.2,7.27,0,0-5.55,3.47-13.34,8.69l-1,.66L50,620.39l-1.08.75c-.73.49-1.46,1-2.21,1.52-4.09,2.84-8.42,5.92-12.67,9.09l-3.45,2.61c-3.43,2.62-6.74,5.26-9.77,7.84-1,.86-2,1.71-2.94,2.55s-1.84,1.68-2.7,2.49c-.57.55-1.12,1.08-1.65,1.62-.27.26-.53.52-.78.79-16.27,16.75-9.86,38.46,14.8,36.48,2.31-.18,4.53-.39,6.69-.6l4.2-.44,4-.45c4.58-.51,8.78-1,12.69-1.27,1.68-.12,3.3-.21,4.88-.25l1.56,0h1.52c1,0,2,.06,3,.14.49,0,1,.08,1.45.13a34.12,34.12,0,0,1,8.18,1.83,29.91,29.91,0,0,1,5.1,2.41h0a22.11,22.11,0,0,1-.3,2.34c0,.28-.1.59-.17.91-.13.64-.3,1.35-.52,2.11s-.47,1.55-.79,2.37a23.31,23.31,0,0,1-1.13,2.46,17.13,17.13,0,0,1-3.5,4.59l-.6.54c-1.07,1-2.48,2.18-4.1,3.6-1,.85-2,1.77-3.1,2.75a129,129,0,0,0-11.16,11.15c-4.48,5.21-7.86,10.59-7.67,15,0,.68.05,1.37.08,2.06s0,1.4.07,2.11c.07,1.41.16,2.82.34,4.21a19.23,19.23,0,0,0,1.5,5.59c.1.2.19.39.3.59a11.43,11.43,0,0,0,1.49,2.21,10,10,0,0,0,.71.75,12.31,12.31,0,0,0,1.71,1.36,14.47,14.47,0,0,0,3.35,1.59,20.11,20.11,0,0,0,2.81.74,46.63,46.63,0,0,0,14.27,0s10.54-2.72,26.9-10.25c1.31-.6,2.65-1.24,4-1.9l2.1-1c2.83-1.4,5.79-2.92,8.88-4.59h0s5.85,3.12,13.76,7.4l1.72.94,3.6,2c5.54,3,11.59,6.36,17.14,9.49,3.69,2.09,7.17,4.09,10.13,5.85.49.29,1,.58,1.5.86a70.68,70.68,0,0,0,9.59,4.4c2.21.82,4.44,1.53,6.65,2.13q.83.23,1.65.42a63.75,63.75,0,0,0,6.43,1.25,43,43,0,0,0,8.66.43,24.22,24.22,0,0,0,3.62-.48,12.89,12.89,0,0,0,3.82-1.41,7.16,7.16,0,0,0,2-1.67h0c.83.55,1.67,1.13,2.51,1.71,3.32,2.3,6.73,4.83,10.19,7.65h0A165,165,0,0,1,240.81,801h0Z"/><path d="M588.63,187.65s-4.44-11.85-.49-13.33,5.42,11.35,8.38,9.37c1.84-1.21.49-4.43.49-4.43s-3.45-15.89-16.76-13.43c0,0-15.29,2.58-13.79,21.82s7.38,23.65,14.78,22.18S591.61,200,588.63,187.65Z"/><path d="M631.53,459.82c-21.69,17.74-38.92,8.42-42.39,4.92-2.48-2.47-5.92-1.48-4.95,1.49S598.49,484,612.79,483,635,470.18,637,462.27,631.53,459.82,631.53,459.82Z"/><path d="M695.68,141.65c-2.21-3.06-12.11-16.45-20.31-22.7a2.72,2.72,0,0,0-1-.47l-2.85-.64a2.6,2.6,0,0,0-1.91.3l-6,3.5a2.62,2.62,0,0,0-.07,4.47c3.66,2.32,16.67,10.84,24.85,19.66A9.85,9.85,0,0,0,693,148.6c1.33.37,2.76.45,3.63-.41,1.18-1.19.77-3.08.25-4.4A10,10,0,0,0,695.68,141.65Z"/><path d="M605.9,357.25c-13.82,0-20.7,15.29-20.22,32.56s13.31,31.05,23.18,30.06,19.72-13.81,19.22-29.6S618.72,357.25,605.9,357.25Z"/><path d="M670,172.45s-16.28-.1-17.75,22.58,4.44,24.06,9.86,24.55c0,0,11.35.61,11.35-18.15s2.47-16.26,4.42-16.26,2,11.34,5.43,11.34c2,0,2.08-3.95,1.59-6.41C684.89,190.1,682.32,172.45,670,172.45Z"/><path d="M569.79,146.7s3.56-11.33,18.35-25.14c1.49-2.46,0-4-6.4-2C571,122.9,560,138.33,560,143.74S566.35,152.65,569.79,146.7Z"/><path d="M598,295.14c2,2.94,11.84,15.27,22.69,13.29s15.78-12.83,15.78-19.72-5.92-2.47-5.92-2.47c-10.86,16.27-28.11,4.45-28.11,4.45C600,289.21,596,292.17,598,295.14Z"/><path class="cls-2" d="M1292.62,564.8c-.65.7-1.29,1.39-1.91,2.08-1.24,1.36-2.4,2.7-3.49,4-2.18,2.6-4.07,5.07-5.72,7.4-8.67,12.26-10.73,20.83-13,26a216.38,216.38,0,0,0,26.93,8c5.56,1.33,10.22,2.31,12.74,2.82l1.79.35q-2.15-26.64-6.76-52.54c-1-4.4-1.67-7-1.67-7q-2.49,2.31-4.72,4.51C1295.34,562,1293.94,563.39,1292.62,564.8Z"/><path class="cls-2" d="M223,621.26s.61.33,1.65.85l.48.23.71.34c.89.42,1.95.9,3.14,1.4l1.6.65c.84.33,1.71.65,2.62,1l.93.31a39.25,39.25,0,0,0,11.79,2.2c8.26-9.71,42.7-41.33,68.32-65.27l1.82-1.7c4.79-4.49,9.24-8.67,13.09-12.34l2.78-2.66,2.53-2.44c2-1.95,3.72-3.66,5.11-5.08q.82-.84,1.5-1.56t1.14-1.26c4.54-5.18,9.9-12.21,15-19.3l2.18-3c2.88-4,5.63-8,8.06-11.61,1.21-1.79,2.34-3.48,3.37-5s1.95-3,2.74-4.19a114.88,114.88,0,0,1,10.84-13.89c1.44-1.62,2.9-3.18,4.34-4.68.85-.9,1.7-1.77,2.52-2.6l1.64-1.64c2.16-2.12,4.15-4,5.82-5.46l1.24-1.08,1.26-1.06c.84-.69,1.69-1.38,2.57-2.06s1.79-1.37,2.75-2.08c4.79-3.52,10.73-7.51,20-14-.84-.94-1.73-2-2.66-3.24-6.19-8.08-14.12-21.7-19.87-33.19-.57-1.15-1.12-2.27-1.65-3.37-1.32-2.75-2.47-5.31-3.41-7.57-.37-.91-.71-1.76-1-2.56a82.82,82.82,0,0,1-3.91-14.06c-.29-1.55-.54-3.1-.75-4.68s-.36-3-.49-4.54c0-.14,0-.28,0-.41-.4-4.79-.53-9.79-.53-15.27a113.49,113.49,0,0,1,4-28,126,126,0,0,1,4.1-12.73c.78-2,1.62-4,2.5-6,.44-1,.89-1.9,1.35-2.83.92-1.85,2.11-4,3.49-6.31.68-1.16,1.42-2.37,2.19-3.61,3.46-5.6,7.66-11.89,11.66-17.73,1.33-1.94,2.65-3.84,3.91-5.64l1.23-1.77c5.28-7.51,9.31-13,9.31-13s4.91-5.51,11.37-12.83c.28-.32.57-.64.85-1,3.73-4.22,7.9-9,11.92-13.6l.93-1.07,1.82-2.1c7.23-8.36,13.44-15.73,14.82-18a50.07,50.07,0,0,0,2.45-4.51c1.54-3.11,3.06-6.64,4.2-9.41h0l3.74-4,.12-.13a1.48,1.48,0,0,1,.12-.17c-1,.58-2,1.18-2.95,1.76a.14.14,0,0,1,0-.06l-2.05,1.27-1.33.8a0,0,0,0,1,0,0c-114.24,70.1-200.66,181.1-238.84,312.65a594.75,594.75,0,0,0-20.08,112.57c0,.43-.08.84-.11,1.27Z"/><path class="cls-2" d="M1290.57,677.62c-4.91.84-7.3,2.29-8.44,3.64a4.42,4.42,0,0,0-.53.8,3.69,3.69,0,0,0-.42,1.41,2.88,2.88,0,0,0,.14,1.18l0,0q.3.6.63,1.2h0c.11.2.23.4.35.6h0l.38.64h0l.43.69h0l.35.55h0l.49.74h0c.11.17.22.34.34.5h0l.56.77h0l.33.47h0c.19.27.4.54.6.8l.33.43.66.84c.11.12.21.25.31.37l.72.88.27.32c.26.3.52.61.79.91l.21.25.88,1,.09.11c2.09,2.3,4.29,4.5,6.44,6.53h0l1,.91.16.15.87.79.24.22.78.71.31.28.71.63.36.31.64.56.42.36.53.46.55.46.36.31.78.65.09.08c2.3,1.91,4,3.25,4.75,3.8h0c1-10,1.68-20,2.13-30.11-.11-4-.29-6.6-.29-6.6-4.19-.31-7.8-.42-10.9-.39A59.92,59.92,0,0,0,1290.57,677.62Z"/><path class="cls-2" d="M1302.18,761.55a80.39,80.39,0,0,1-9.89-1.83h0l-1.13-.28-.07,0-1.15-.31-.05,0c-2-.54-4.07-1.2-6.23-2l-.24-.08-1-.37-.45-.17-.88-.36-.54-.22-.83-.36-.6-.26-.79-.36-.63-.3-.77-.37-.66-.33-.74-.38-.67-.36-.72-.4-.68-.4-.7-.41-.69-.43-.66-.42-.73-.49-.6-.41-.81-.58-.49-.36-1.27-1-3.51-2.88-2-1.61-1.7-1.38-1.47-1.2q-.33-.29-.66-.54l-1.18-1-.54-.44-.5-.41-.48-.38-.45-.37-.43-.35-.81-.67-.79-.65-1.19-1-.42-.35-.43-.36-.94-.8-2.26-1.93-.68-.57-.74-.59-.8-.61c-.82-.62-1.73-1.27-2.69-1.94-2.24-1.56-4.81-3.22-7.43-4.84l-2.25-1.38-2.24-1.34-2.19-1.28-2.11-1.21c-3.77-2.14-6.93-3.81-8.45-4.48-.28-.12-.57-.25-.88-.37l-1-.35-1.07-.33a42.72,42.72,0,0,0-5-1.14c-.92-.16-1.88-.3-2.87-.42s-2-.22-3-.3-2.07-.12-3.12-.15c-.52,0-1,0-1.57,0-1.06,0-2.11,0-3.16.09-.48,0-1,.08-1.5.13l-.34,0c-1,.11-2,.25-3.05.42-1.31.21-2.67.46-4,.75s-2.6.57-3.9.9-2.6.66-3.88,1c-4.45,1.23-8.58,2.59-11.39,3.67-1,.39-2.61.88-4.6,1.44l-1.24.35-1.32.35-1.4.37-3,.76-1.55.39-4.82,1.18-1.62.39-3.21.76-3.09.72-1.48.34c-5.8,1.35-10.17,2.31-10.17,2.31h0c-4.55,28.13-13.22,64.55-32.94,103.9-15.83,31.6-38.78,65.08-72.43,97.71a449,449,0,0,1-53.89,44.43q-3,2.07-6,4.09a320.56,320.56,0,0,1-63.13,32.4c-69.69,26.75-154.66,33.78-238.59,11.35-45.93-12.27-83-33.25-109.71-52.3-3.57-2.55-7-5.07-10.16-7.53l-1.22-.94-1.2-.94-1.11-.87-1.21-1-1-.81-1.16-.94-1-.82-1.1-.91-1-.82-1.07-.9-1-.79-1-.89-.9-.76-1-.88-.86-.74-1-.85-.84-.73-.91-.82-.82-.73-.88-.79-.76-.69-.86-.78-.72-.66-.81-.75-.7-.66-.76-.7-.67-.64-.71-.67-.65-.62-.67-.65-.6-.58-.63-.61c-.19-.2-.39-.38-.58-.57l-.57-.57q-.29-.27-.54-.54T513,934l-.51-.51L512,933l-.48-.48-.45-.47-.43-.44-.42-.43-.39-.42-.37-.39-.37-.38-.32-.34-.32-.35-.29-.31-.29-.31-.24-.26-.25-.28a1.8,1.8,0,0,1-.19-.21l-.2-.22-.18-.19-.12-.13-.17-.2-.1-.11-.09-.11-.07-.08-.1-.11L606,863.61l3.19-2,517-327.12.32-.2h0c4.88,5.93,8.37,10.85,8.37,10.85h0l18.25-2,9.43-.18,1.42,0,9.57-.2,3.4-.08,6.74-.17c3.85-.1,7.44-.2,10.36-.31l1.64-1,.39-.23,1.29-.76.41-.24,1.31-.76c.12-.08.25-.15.38-.22l1.37-.8.34-.2,1.43-.82.34-.19,1.46-.83.3-.18,1.57-.88.19-.11h0l1.71-1h0l0,0h0c32.12-18,72-37.46,77.76-40.26-70.26-220.15-276.58-379.53-520.11-379.18l-.37.37c0,.72,0,1.75.07,3V118c0,.17,0,.34,0,.51s0,.29,0,.44,0,.29,0,.44l0,.59c0,.13,0,.27,0,.4s0,.49,0,.74,0,.23,0,.34c0,.32,0,.64.07,1a1.15,1.15,0,0,0,0,.19c.06.83.13,1.71.21,2.63,0,0,0,.07,0,.11,0,.42.07.84.12,1.27,0,.08,0,.16,0,.23,0,.4.09.81.13,1.23l0,.27.15,1.28,0,.24c.06.49.13,1,.2,1.51v.05c.15,1.09.31,2.21.5,3.36l0,.12c.08.52.16,1,.25,1.57l.06.32c.08.47.16.93.25,1.4,0,.14,0,.27.08.41.08.46.17.93.26,1.4,0,.13,0,.26.08.39.1.51.21,1,.32,1.54l.06.27c.26,1.22.54,2.46.85,3.72,0,.13.07.27.1.4.12.48.24,1,.37,1.45l.15.58c.12.43.23.86.35,1.29l.18.65c.12.42.25.84.37,1.27.07.21.13.43.19.65l.42,1.34.18.57c.2.63.41,1.27.63,1.91,4.48,13.14-3.48,42.75-2,54.75,4.92,39.44,28.61,74.45,28.61,74.45,41.41,3.94,65.07,6.4,127.19,35s99.61,71,99.61,71l-27.15,17.16-.37.24h0L489.22,730.58l-.14.1-74.59,47.15c-9.38-21.18-13.83-54.23-13.83-54.23l-49.78,37.48-45,19h0a5.08,5.08,0,0,0-2.5,7.09l.09.17.35.65c0,.1.11.2.16.31.16.29.31.59.47.9l.05.1c.18.33.35.68.53,1l.16.32c.13.26.26.52.38.78s.13.25.19.37l.41.86.13.28.54,1.16c0,.08.07.16.11.25l.42.93.16.39c.13.28.25.57.37.86l.15.36q.25.6.48,1.2v0q.24.6.45,1.2c.05.12.09.24.13.35q.17.44.3.87l.14.39c.1.31.19.62.29.92,0,.09.06.19.08.28.12.39.23.78.33,1.16,0,.09,0,.17.07.26l.21.88c0,.12.05.25.08.37s.11.52.15.78l.06.33c.06.36.11.72.14,1.06.08.67.14,1.3.19,1.91,0,.19,0,.37.05.56,0,.42.06.83.09,1.22l0,.58c0,.39,0,.77.06,1.14,0,.15,0,.31,0,.46,0,.5,0,1,0,1.45v.17l0,.93a.49.49,0,0,0,0,.12.45.45,0,0,0,0,.11l0,.41c0,.3-.06.58-.09.86l-.06.42,0,.26c0,.21-.08.4-.11.6l-.06.31c-.08.35-.16.71-.26,1,0,0,0,0,0,0-.05.18-.11.36-.17.54-.14.43-.29.85-.47,1.28a21,21,0,0,1-1.24,2.46c-.25.44-.51.88-.81,1.34a11.55,11.55,0,0,1-2.66,2.83,18.45,18.45,0,0,1-2.44,1.62A25.9,25.9,0,0,1,300,831a35.54,35.54,0,0,1-9.82,2.44,30.23,30.23,0,0,1-4.92.12c-9.06-.55-15-5.26-24.65-12.8l-1.42-1.12a116.2,116.2,0,0,1-16.57-16.35c-.54-.65-1.08-1.32-1.63-2l-.22-.27h0c.37,1.7,1.5,6.76,3.11,13.08,37.92,149,162.19,290,319.83,351.42,30.74,12,50.91,16.64,50.91,16.64,65.21,16.1,125.88,23.63,184.41,21.45,230.16-13.49,422-169.76,488-381.53l.51-1.69c.66-2.12,1.27-4.26,1.9-6.39,1.36-4.66,2.61-9.13,3.75-13.34,0-.13.07-.25.1-.37q.81-3,1.54-5.8,4.14-16.29,7.27-33Z"/></g></g></svg>